# xmcd
#
# Track frame offsets: 
#        150
#        15933
#        36257
#        51875
#        70030
#        94550
#        113359
#        128993
#        145908
#        165756
#        182505
#
# Disc length: 2665 seconds
#
# Revision: 1
# Processed by: cddbd v1.5.2PL0 Copyright (c) Steve Scherf et al.
# Submitted via: ExactAudioCopy v0.95a5
#
DISCID=7c0a670b
DTITLE=Robert Randolph and The Family Band - Colorblind
DYEAR=2006
DGENRE=Rock
TTITLE0=Ain't Nothing Wrong With That
TTITLE1=Deliver Me
TTITLE2=Diane
TTITLE3=Angels
TTITLE4=Jesus Is Just Alright (feat. Eric Clapton)
TTITLE5=Stronger (feat. Leela James)
TTITLE6=Thrill Of It
TTITLE7=Blessed
TTITLE8=Love Is The Only Way (feat. Dave Matthews, Leroi Moore and Rasha
TTITLE8=wn Ross)
TTITLE9=Thankful 'N Thoughtful
TTITLE10=Homecoming
EXTD=http://www.robertrandolph.net
EXTT0=
EXTT1=
EXTT2=
EXTT3=
EXTT4=
EXTT5=
EXTT6=
EXTT7=
EXTT8=
EXTT9=
EXTT10=
PLAYORDER=
